<svg width="27" height="27" viewBox="0 0 27 27" fill="none" xmlns="http://www.w3.org/2000/svg">
  <path
    d="M27 13.5C27 20.9558 20.9558 27 13.5 27C6.04416 27 0 20.9558 0 13.5C0 6.04416 6.04416 0 13.5 0C20.9558 0 27 6.04416 27 13.5ZM2.97635 13.5C2.97635 19.3121 7.68795 24.0237 13.5 24.0237C19.3121 24.0237 24.0237 19.3121 24.0237 13.5C24.0237 7.68795 19.3121 2.97635 13.5 2.97635C7.68795 2.97635 2.97635 7.68795 2.97635 13.5Z"
    fill="#70DA55" />
  <rect x="12" y="7" width="3" height="13" rx="1.5" fill="#70DA55" />
  <rect x="7" y="15" width="3" height="13" rx="1.5" transform="rotate(-90 7 15)" fill="#70DA55" />
</svg>