<svg width="26" height="26" viewBox="0 0 26 26" fill="none" xmlns="http://www.w3.org/2000/svg">
  <mask id="path-1-inside-1_72_151" fill="white">
    <path
      d="M13 24.5726C13 25.3609 12.359 26.0081 11.5754 25.9217C8.6516 25.5995 5.90742 24.2922 3.80761 22.1924C1.36964 19.7544 -9.59118e-08 16.4478 0 13C9.59118e-08 9.55219 1.36964 6.24558 3.80761 3.80761C5.90742 1.7078 8.6516 0.400513 11.5754 0.0782507C12.359 -0.00811606 13 0.639061 13 1.42738C13 2.2157 12.3578 2.84444 11.5772 2.95498C9.41239 3.26158 7.39027 4.2622 5.82624 5.82624C3.92364 7.72884 2.85476 10.3093 2.85476 13C2.85476 15.6907 3.92363 18.2712 5.82624 20.1738C7.39027 21.7378 9.41239 22.7384 11.5772 23.045C12.3578 23.1556 13 23.7843 13 24.5726Z" />
  </mask>
  <path
    d="M13 24.5726C13 25.3609 12.359 26.0081 11.5754 25.9217C8.6516 25.5995 5.90742 24.2922 3.80761 22.1924C1.36964 19.7544 -9.59118e-08 16.4478 0 13C9.59118e-08 9.55219 1.36964 6.24558 3.80761 3.80761C5.90742 1.7078 8.6516 0.400513 11.5754 0.0782507C12.359 -0.00811606 13 0.639061 13 1.42738C13 2.2157 12.3578 2.84444 11.5772 2.95498C9.41239 3.26158 7.39027 4.2622 5.82624 5.82624C3.92364 7.72884 2.85476 10.3093 2.85476 13C2.85476 15.6907 3.92363 18.2712 5.82624 20.1738C7.39027 21.7378 9.41239 22.7384 11.5772 23.045C12.3578 23.1556 13 23.7843 13 24.5726Z"
    fill="#F1F4F1" stroke="#70DA55" stroke-width="4" mask="url(#path-1-inside-1_72_151)" />
  <rect width="15" height="0" transform="translate(6 13)" fill="white" />
  <path
    d="M22.7071 13.7071C23.0976 13.3166 23.0976 12.6834 22.7071 12.2929L16.3431 5.92893C15.9526 5.53841 15.3195 5.53841 14.9289 5.92893C14.5384 6.31946 14.5384 6.95262 14.9289 7.34315L20.5858 13L14.9289 18.6569C14.5384 19.0474 14.5384 19.6805 14.9289 20.0711C15.3195 20.4616 15.9526 20.4616 16.3431 20.0711L22.7071 13.7071ZM2 14H22V12H2V14Z"
    fill="#70DA55" />
</svg>