<svg width="26" height="23" viewBox="0 0 26 23" fill="none" xmlns="http://www.w3.org/2000/svg">
  <path fill-rule="evenodd" clip-rule="evenodd"
    d="M22.514 1.14367C22.8091 1.01646 23.1321 0.972584 23.4493 1.01661C23.7666 1.06064 24.0665 1.19096 24.3179 1.39401C24.5693 1.59706 24.763 1.86542 24.8788 2.17114C24.9946 2.47687 25.0282 2.8088 24.9762 3.13237L22.268 19.9581C22.0053 21.5811 20.2667 22.5118 18.8135 21.7034C17.5979 21.027 15.7924 19.985 14.1684 18.8977C13.3564 18.3534 10.8691 16.6106 11.1748 15.3704C11.4375 14.31 15.6169 10.3252 18.0051 7.95614C18.9424 7.02539 18.515 6.48846 17.408 7.34461C14.6592 9.4703 10.2458 12.7029 8.78661 13.6128C7.49937 14.4152 6.82828 14.5521 6.02584 14.4152C4.56187 14.1656 3.20418 13.7792 2.09605 13.3083C0.598648 12.6723 0.671488 10.5637 2.09486 9.94974L22.514 1.14367Z"
    fill="white" fill-opacity="0.27" stroke="#8E8E8E" />
</svg>