<svg width="46" height="62" viewBox="0 0 46 62" fill="none" xmlns="http://www.w3.org/2000/svg">
  <path
    d="M20.711 0.305462C19.5379 0.382904 18.05 0.509621 17.814 0.551861C17.6995 0.572983 17.2632 0.636341 16.8483 0.692661C16.4334 0.748981 15.7897 0.840504 15.4177 0.903862C15.0457 0.960182 14.3591 1.06578 13.9013 1.13618C13.4435 1.19954 13.0429 1.27698 13.0143 1.30514C12.9857 1.34034 12.8641 1.36146 12.7496 1.36146C12.5636 1.36146 11.6337 1.55154 11.0186 1.71346C10.9041 1.74162 10.4535 1.84018 10.0171 1.92466C9.58795 2.00914 9.16592 2.1077 9.08724 2.13586C9.00855 2.17106 8.86549 2.20626 8.76535 2.22738C8.6652 2.24146 8.32901 2.32594 8.01427 2.41746C7.69954 2.50194 7.28466 2.61458 7.08437 2.66386C6.66234 2.7765 5.73244 3.0229 5.22457 3.15666C5.03144 3.20594 4.60941 3.33266 4.30183 3.43122C3.99424 3.52978 3.69382 3.61426 3.63659 3.61426C3.58652 3.61426 3.48638 3.64242 3.41485 3.67762C3.23602 3.76914 2.69238 3.94514 2.39911 4.0085C2.2632 4.02962 2.10583 4.0789 2.04146 4.1141C1.98423 4.14226 1.72672 4.23378 1.46921 4.31826C1.2117 4.40274 0.918422 4.5013 0.811126 4.55058L0.61084 4.63506V11.8159V19.0037L1.5622 19.3416C2.07722 19.5247 2.57078 19.7007 2.64947 19.7359C2.72815 19.764 2.89267 19.8274 3.00712 19.8626C3.42915 20.0034 4.50927 20.3835 4.65233 20.4399C4.73101 20.468 5.00283 20.5666 5.26034 20.6511C5.51785 20.7355 5.78967 20.8341 5.86835 20.8693C6.02572 20.9327 6.8054 21.2072 7.64231 21.4818C7.94274 21.5803 8.1931 21.7 8.1931 21.7493C8.1931 21.7986 8.02858 21.8549 7.78538 21.8831C7.56363 21.9112 7.29897 21.9605 7.19882 22.0027C7.09868 22.0379 6.86978 22.1013 6.69095 22.1295C6.51213 22.1647 6.16163 22.2421 5.90412 22.3055C5.64661 22.3688 5.2818 22.4603 5.08151 22.5096C4.88838 22.5589 4.67379 22.6152 4.61656 22.6363C4.55934 22.6645 4.31613 22.7349 4.08008 22.7983C3.84403 22.8616 3.52214 22.9602 3.36477 23.0095C3.20741 23.0587 2.83545 23.1714 2.54217 23.2559C1.64088 23.5163 1.0901 23.6923 0.839738 23.7979L0.61084 23.8965L0.625146 31.1899L0.646605 38.4904L1.64804 38.8143C2.19882 38.9973 2.74246 39.1803 2.84975 39.2226C2.9642 39.2719 3.12872 39.3071 3.22171 39.3071C3.3147 39.3071 3.40769 39.3352 3.42915 39.3704C3.45776 39.4056 3.60083 39.4549 3.75819 39.4831C3.91556 39.5112 4.05862 39.5605 4.08723 39.5957C4.10869 39.6309 4.18022 39.6591 4.25176 39.6591C4.32329 39.6591 4.63802 39.7435 4.9456 39.8421C5.56792 40.0392 6.01141 40.1589 6.86978 40.3631C7.18452 40.4335 7.57078 40.525 7.72815 40.5602C7.88552 40.6024 8.13588 40.6517 8.28609 40.6728C8.42915 40.701 8.55075 40.7503 8.55075 40.7784C8.55075 40.8418 7.88552 41.0671 7.70669 41.0671C7.64231 41.0671 7.49925 41.0952 7.37765 41.1304C7.1416 41.2008 6.6838 41.3275 5.83259 41.5599C5.53931 41.6443 5.24603 41.7359 5.18881 41.764C5.12443 41.7992 4.9313 41.8485 4.75962 41.8767C4.58795 41.9048 4.39482 41.9541 4.33044 41.9893C4.27321 42.0175 3.97994 42.109 3.68666 42.1935C3.18595 42.3343 2.08437 42.6651 1.06148 42.989L0.61084 43.1298V50.212C0.61084 54.1052 0.639452 57.3295 0.668064 57.3717C0.696677 57.421 0.861198 57.4984 1.04002 57.5477C1.21885 57.597 1.39768 57.6604 1.43344 57.6885C1.47636 57.7096 1.61942 57.7589 1.75533 57.7871C1.89124 57.8152 2.04146 57.8645 2.07722 57.8927C2.12014 57.9208 2.2632 57.9701 2.39911 57.9983C2.53502 58.0264 2.69238 58.0757 2.75676 58.1039C2.91413 58.1884 4.89553 58.8079 4.99568 58.8079C5.04575 58.8079 5.16735 58.8501 5.27465 58.9064C5.38194 58.9628 5.65376 59.0472 5.88266 59.0895C6.27608 59.1669 6.87693 59.3288 7.12014 59.4274C7.17736 59.4485 7.40626 59.5048 7.62085 59.5541C7.97135 59.6316 9.10869 59.9061 9.76678 60.0751C9.90269 60.1103 10.339 60.2088 10.7324 60.2933C11.1259 60.3778 11.5121 60.4693 11.5908 60.4975C11.6695 60.5327 11.9628 60.589 12.2346 60.6383C12.5136 60.6805 12.8998 60.7509 13.093 60.7861C13.2932 60.8213 13.6437 60.8847 13.8798 60.9199C14.1158 60.948 14.6309 61.0325 15.0243 61.0959C16.2117 61.286 17.1273 61.4056 17.9571 61.4831C18.3934 61.5253 18.937 61.5887 19.1731 61.6309C19.8168 61.7436 25.3462 61.7928 26.5407 61.7013C28.3076 61.5676 29.9241 61.3775 31.6194 61.1029C33.6151 60.7932 34.0729 60.7087 34.2661 60.6524C34.3877 60.6172 34.7382 60.5327 35.0529 60.4693C35.3676 60.3989 35.7396 60.3144 35.8755 60.2863C36.0114 60.2511 36.6409 60.0962 37.2704 59.9413C37.8998 59.7864 38.5937 59.6104 38.8083 59.5471C39.0229 59.4837 39.3662 59.3922 39.5593 59.3359C39.7596 59.2866 40.1602 59.174 40.4535 59.0895C40.7467 59.005 41.1187 58.9064 41.2761 58.8642C41.4334 58.829 41.6623 58.7516 41.7768 58.7023C41.8984 58.653 42.3133 58.5122 42.7067 58.3855C43.1001 58.2658 43.4864 58.1391 43.5651 58.1039C43.6437 58.0687 43.8226 58.0053 43.9585 57.9701C44.3519 57.8575 45.4606 57.428 45.5393 57.3506C45.5822 57.3084 45.5965 54.612 45.5894 50.2261L45.5679 43.172L45.246 43.0101C44.7453 42.7496 43.8297 42.3343 43.7653 42.3343C43.7367 42.3272 43.5794 42.2709 43.422 42.1935C43.2646 42.116 43.1144 42.0597 43.0787 42.0527C43.05 42.0527 42.8641 41.9752 42.6566 41.8767C42.4563 41.7781 42.2489 41.7007 42.2131 41.7007C42.1702 41.7007 42.0558 41.6584 41.9556 41.6091C41.8555 41.5599 41.5694 41.4472 41.3118 41.3557C41.0543 41.2642 40.7825 41.1656 40.7038 41.1304C40.6251 41.1023 40.4463 41.0459 40.3104 41.0107C39.9385 40.9263 39.9456 40.7432 40.3247 40.6376C40.7038 40.525 41.3977 40.1307 41.7339 39.8421C42.4921 39.1874 42.9928 38.6171 43.5508 37.7864C44.0014 37.1106 44.9599 35.3154 44.9599 35.1464C44.9599 35.1042 45.01 34.9845 45.0672 34.8859C45.1817 34.6888 45.2532 34.5058 45.4678 33.9215C45.5894 33.5976 45.5965 33.2245 45.6037 28.7471V23.9247L45.4463 23.8261C45.0887 23.6079 44.2875 23.2418 43.3505 22.8757C42.7997 22.6575 42.299 22.4533 42.2417 22.4181C42.1774 22.3829 42.02 22.3336 41.8841 22.3055C41.7482 22.2773 41.5908 22.228 41.5264 22.1999C41.2832 22.0731 39.9385 21.6719 39.2947 21.5381C39.1802 21.5099 39.0944 21.4607 39.0944 21.4255C39.0944 21.3339 39.3447 21.2143 39.545 21.2143C39.7167 21.2143 42.3633 20.5736 42.6781 20.4539C42.7711 20.4187 43.093 20.3131 43.3862 20.2287C43.9585 20.0597 43.9513 20.0667 44.9241 19.6725L45.5679 19.4191V12.0271V4.6421L44.9957 4.40978C44.6809 4.28306 44.1373 4.0789 43.7797 3.95922C43.4292 3.83954 43.0715 3.71986 42.9928 3.68466C42.6852 3.5509 40.6895 2.9173 40.432 2.87506C40.289 2.8469 40.153 2.79762 40.1316 2.76946C40.1101 2.73426 39.9599 2.69202 39.7882 2.66386C39.6237 2.6357 39.3591 2.57938 39.2017 2.5301C39.0443 2.47378 38.7868 2.39634 38.6294 2.34706C38.4721 2.29074 38.2289 2.22738 38.093 2.19922C37.9571 2.1781 37.6495 2.10066 37.4134 2.03026C37.1774 1.9669 36.7768 1.86834 36.5193 1.80498C36.2618 1.74866 35.8612 1.65714 35.6251 1.60082C35.3891 1.5445 35.0171 1.46706 34.8025 1.43186C34.588 1.38962 34.3304 1.32626 34.2303 1.29106C34.1302 1.25586 33.7153 1.17138 33.3004 1.10802C32.8855 1.04466 32.2918 0.953144 31.9771 0.896824C31.0329 0.734901 29.9456 0.594101 29.1158 0.516663C28.6867 0.474422 28.1859 0.404022 28.0071 0.368824C27.6209 0.277302 21.8126 0.228024 20.711 0.305462ZM25.5536 3.96626C26.6981 4.00146 28.05 4.06482 28.5579 4.10706C29.9313 4.22674 32.1273 4.45202 32.6566 4.52946C34.9599 4.86034 36.8841 5.21234 37.9499 5.49394C38.3219 5.5925 38.7296 5.6981 38.844 5.72626C39.545 5.9093 40.4535 6.30354 40.6395 6.5077C40.7682 6.6485 40.7682 6.66258 40.6323 6.90899C40.0314 8.00723 36.1759 8.85202 30.2246 9.20403C24.7739 9.52786 17.6852 9.35186 12.9857 8.78866C11.8626 8.64787 10.3176 8.42258 9.9456 8.3381C9.78824 8.29586 9.41628 8.21842 9.123 8.14802C8.55075 8.02131 7.67808 7.78898 7.44203 7.7045C6.6695 7.4229 5.97565 6.93714 5.97565 6.6837C5.97565 6.5781 6.30469 6.26834 6.54074 6.14866C6.63373 6.09938 7.02 5.95154 7.39196 5.82482C7.97851 5.61362 8.37193 5.50802 9.87407 5.16306C10.339 5.05746 11.2403 4.89554 12.2346 4.7477C12.7496 4.66322 13.3719 4.5717 13.6294 4.52946C14.2732 4.4309 15.1244 4.34642 17.9928 4.10002C18.5221 4.05074 19.8598 3.99442 20.9613 3.96626C22.0629 3.94514 23.0787 3.91698 23.2146 3.90994C23.3505 3.9029 24.402 3.93106 25.5536 3.96626ZM42.5994 12.8367C42.5994 14.3855 42.5708 15.6527 42.5422 15.6527C42.5064 15.6527 42.4134 15.5611 42.3347 15.4485C41.9199 14.9064 40.5965 13.5688 39.8312 12.9211C39.0086 12.2312 37.8283 11.3583 37.721 11.3583C37.5779 11.3583 37.6924 11.2386 37.8998 11.1682C38.5221 10.957 42.1845 10.0347 42.442 10.0277L42.5994 10.0207V12.8367ZM25.3748 18.4546C25.9256 18.6376 26.3476 18.8911 26.7482 19.2994C27.1702 19.7288 27.3347 19.9823 27.6209 20.6863L27.8569 21.2495L28.3433 21.3973C28.608 21.4818 29.123 21.6367 29.4735 21.7352C34.9671 23.3615 41.0973 25.572 40.9184 25.8607C40.8469 25.9733 40.1173 26.3535 39.6881 26.5013C38.6437 26.8533 36.2189 27.2616 34.4091 27.3813L33.7653 27.4235L33.2789 26.4731C32.3061 24.5864 31.6766 23.8613 30.6895 23.5163C29.0229 22.925 27.6209 22.6152 26.1116 22.4885C25.6037 22.4463 24.7811 22.3829 24.2875 22.3407C21.5407 22.1224 20.1745 21.0523 20.8827 19.6725C21.1831 19.1023 21.7482 18.7221 22.6781 18.4616C23.3076 18.2856 24.8455 18.2856 25.3748 18.4546ZM14.4878 24.2274C15.2818 24.8891 16.0615 25.4171 16.5264 25.6143C16.9699 25.7973 18.6151 26.3253 19.2446 26.4802C20.1459 26.6984 21.0257 26.8322 22.1058 26.9167C24.731 27.1138 25.103 27.1771 25.9113 27.5573C26.9556 28.0501 27.349 28.74 27.0128 29.4933C26.741 30.0987 26.1116 30.5986 25.3533 30.8168C24.3447 31.0984 22.8354 31.0632 22.0701 30.7323C21.2832 30.3944 20.5179 29.5215 20.1817 28.557L20.01 28.0853L18.8011 28.0994C18.143 28.1064 17.1845 28.0853 16.6695 28.0431C16.1616 28.0079 15.4964 27.9515 15.2031 27.9304C14.9098 27.9093 14.1373 27.8107 13.4864 27.7192C11.3905 27.4235 10.7825 27.3179 9.33759 26.9871C8.96563 26.9026 8.5436 26.8111 8.40769 26.7759C7.92128 26.6703 6.21885 26.2197 5.73244 26.0719C5.18166 25.9029 5.18166 25.8747 5.76105 25.565C6.4549 25.1989 8.72243 24.5583 10.5894 24.2063C10.8684 24.1499 11.2546 24.0725 11.4478 24.0303C11.648 23.988 12.1559 23.8895 12.5851 23.8191C13.0143 23.7416 13.3791 23.6642 13.4005 23.6431C13.5293 23.5163 13.8226 23.6712 14.4878 24.2274ZM19.8884 42.9115C22.0271 43.0242 24.9528 43.0171 27.113 42.8975C30.5179 42.7144 32.392 42.7637 34.4807 43.1087C35.4177 43.2635 36.5694 43.4677 36.8769 43.5311C38.701 43.9323 39.6952 44.2421 40.1888 44.5589C40.432 44.7138 40.4606 44.7631 40.4177 44.925C40.153 45.981 36.4764 46.9314 31.4263 47.2623C30.8254 47.3045 29.8312 47.3679 29.2231 47.4031C27.7282 47.5016 20.0815 47.5016 18.3862 47.4031C16.319 47.2904 15.153 47.2059 13.6652 47.0511C8.97994 46.5653 6.03287 45.7698 5.72529 44.9109C5.66091 44.7279 5.68237 44.6927 5.91842 44.4885C6.42629 44.0591 8.02143 43.6296 10.3104 43.3199C12.1416 43.0735 12.4134 43.0453 13.844 42.9327C14.6094 42.8763 15.3819 42.82 15.5608 42.7989C15.9971 42.7637 17.9714 42.813 19.8884 42.9115ZM42.5994 51.0639C42.5994 52.6127 42.5708 53.8799 42.5422 53.8799C42.5064 53.8799 42.2704 53.6335 42.0057 53.3308C40.947 52.0988 39.4592 50.7612 38.2575 49.9516C37.9284 49.7403 37.6638 49.5362 37.6638 49.508C37.6638 49.4869 37.8498 49.4165 38.0787 49.3532C40.7038 48.6773 41.3905 48.5013 41.6337 48.452C41.7911 48.4168 42.02 48.3605 42.1344 48.3253C42.6423 48.1704 42.5994 47.9381 42.5994 51.0639ZM20.2317 53.556C21.5121 54.3234 22.8211 55.2386 24.3233 56.4213C25.5465 57.3928 27.0772 58.6952 27.0772 58.7656C27.0772 58.8712 24.3519 59.0895 23.0429 59.0895C22.0415 59.0895 20.0744 58.9346 19.6023 58.8149L19.3877 58.7656L19.3662 55.9356C19.3591 54.3304 19.3805 53.1055 19.4163 53.1055C19.4449 53.1055 19.8168 53.3096 20.2317 53.556Z"
    fill="#70DA55" />
</svg>